# xmcd CD database file
#
# Track frame offsets:
#	150
#	12120
#	33572
#	49977
#	56533
#	68982
#
# Disc length: 1309 seconds
#
# Revision: 0
# Processed by: cddbd v1.5.2PL0 Copyright (c) Steve Scherf et al.
# Submitted via: CDex 1.70beta2
#
DISCID=4d051b06
DTITLE=Finest Blend - Surprise
DYEAR=1998
DGENRE=Jazz
TTITLE0=Sonntag is's
TTITLE1=Namimi Damjantscho
TTITLE2=Blues For Patrick
TTITLE3=Komott
TTITLE4=Mondscheinbriada
TTITLE5=Kater am Morgen
EXTD=YEAR: 1998
EXTT0=
EXTT1=
EXTT2=
EXTT3=
EXTT4=
EXTT5=
PLAYORDER=
